<?xml version="1.0" encoding="UTF-8" standalone="no"?>
<svg
   xmlns:dc="http://purl.org/dc/elements/1.1/"
   xmlns:cc="http://creativecommons.org/ns#"
   xmlns:rdf="http://www.w3.org/1999/02/22-rdf-syntax-ns#"
   xmlns:svg="http://www.w3.org/2000/svg"
   xmlns="http://www.w3.org/2000/svg"
   xmlns:xlink="http://www.w3.org/1999/xlink"
   xmlns:sodipodi="http://sodipodi.sourceforge.net/DTD/sodipodi-0.dtd"
   xmlns:inkscape="http://www.inkscape.org/namespaces/inkscape"
   inkscape:version="1.0 (4035a4fb49, 2020-05-01)"
   sodipodi:docname="swords.svg"
   id="svg8"
   xml:space="preserve"
   width="375.61523"
   viewBox="0 0 375.61523 459.42963"
   version="1.1"
   height="459.42963"><metadata
     id="metadata14"><rdf:RDF><cc:Work
         rdf:about=""><dc:format>image/svg+xml</dc:format><dc:type
           rdf:resource="http://purl.org/dc/dcmitype/StillImage" /><dc:title></dc:title></cc:Work></rdf:RDF></metadata><defs
     id="defs12"><clipPath
       id="clipPath96"
       clipPathUnits="userSpaceOnUse"><use
         id="use98"
         xlink:href="#g92"
         y="0"
         x="0" /></clipPath></defs><sodipodi:namedview
     fit-margin-bottom="0"
     fit-margin-right="0"
     fit-margin-left="0"
     fit-margin-top="0"
     inkscape:current-layer="svg8"
     inkscape:window-maximized="1"
     inkscape:window-y="-8"
     inkscape:window-x="-8"
     inkscape:cy="229.99805"
     inkscape:cx="189.83984"
     inkscape:zoom="1.6357866"
     showgrid="false"
     id="namedview10"
     inkscape:window-height="1027"
     inkscape:window-width="1920"
     inkscape:pageshadow="2"
     inkscape:pageopacity="0"
     guidetolerance="10"
     gridtolerance="10"
     objecttolerance="10"
     borderopacity="1"
     bordercolor="#666666"
     pagecolor="#ffffff" /><g
     transform="translate(195.51516,-9.955008)"
     id="g85"><g
       id="_x35_86_x2C__battle_x2C__emblem_x2C__viking_x2C__warrior_x2C__swords"
       style="stroke-width:1.00001"
       transform="translate(-266.67532,3.953055)"><g
         id="g4"
         style="stroke-width:1.00001"><path
           id="path2"
           style="clip-rule:evenodd;fill-rule:evenodd;stroke-width:1.00001"
           d="m 258.76562,26.001953 c -9.80296,0 -18.84635,2.944813 -26.19335,7.882813 -5.192,3.512 -9.55138,8.032281 -12.73438,13.238281 3.868,-1.131 7.84042,-2.111063 11.85742,-2.914063 l 0.23633,-0.06055 0.47656,-0.08984 0.23828,-0.0293 0.47657,-0.08789 0.0762,-0.03125 0.16211,-0.0293 0.23828,-0.0293 0.23828,-0.05859 0.23633,-0.03125 0.22461,-0.05859 0.23828,-0.03125 0.23633,-0.0293 0.0898,-0.0293 0.29688,-0.05859 c 2.439,-0.418 4.89395,-0.774266 7.37695,-1.072266 l 0.35937,-0.0293 0.35547,-0.05859 h 0.0293 l 0.37305,-0.03125 0.37109,-0.02734 0.37305,-0.06055 0.37109,-0.0293 0.74414,-0.08984 0.38672,-0.0293 0.37109,-0.0293 0.37305,-0.0293 h 0.0137 l 0.35742,-0.03125 0.37305,-0.02734 0.38477,-0.0293 0.35937,-0.03125 0.23633,-0.02734 h 0.14844 l 0.38867,-0.0293 0.36914,-0.03125 0.37305,-0.0293 c 5.029,-0.327 10.17512,-0.387437 15.20312,-0.148437 h 0.38477 l 0.37305,0.0293 h 0.10546 l 0.26563,0.0293 h 0.38867 l 0.38672,0.0293 0.35547,0.03125 H 267.5 l 0.38672,0.02734 0.37109,0.03125 0.37305,0.0293 0.37109,0.0293 h 0.14844 l 0.23633,0.0293 0.37305,0.0293 0.38671,0.03125 0.35743,0.02734 0.35547,0.0293 h 0.0312 l 0.36915,0.0293 0.37304,0.03125 0.38672,0.0293 0.74414,0.08789 0.35547,0.03125 0.38867,0.05859 0.3711,0.0293 0.37109,0.0293 h 0.0156 l 0.35547,0.06055 0.37305,0.0293 c 2.484,0.298 4.93891,0.65426 7.37891,1.072266 l 0.29687,0.05859 0.0742,0.0293 0.23633,0.0293 0.24023,0.0293 0.23633,0.06055 0.23828,0.0293 0.22266,0.06055 0.23828,0.0293 0.17969,0.0293 0.0586,0.0293 0.47656,0.08789 0.23829,0.03125 0.47656,0.08789 0.23828,0.06055 c 4.015,0.803 7.98714,1.785016 11.86914,2.916016 -3.181,-5.205 -7.55505,-9.727281 -12.74805,-13.238281 -7.348,-4.938 -16.39168,-7.882813 -26.17969,-7.882813 z m -1.82031,22.853516 -0.35547,0.0293 h -0.35742 -0.72851 -0.0293 l -0.3418,0.02734 h -0.35937 -0.35547 l -0.35547,0.03125 h -0.24023 -0.11915 l -0.37109,0.0293 h -0.35547 l -0.35937,0.0293 h -0.3711 -0.0605 l -0.29493,0.0293 -0.35937,0.03125 -0.71094,0.0293 -0.26953,0.02734 h -0.0879 l -0.35742,0.0293 h -0.35742 l -0.35547,0.0293 -0.35938,0.0293 h -0.10351 l -0.25196,0.03125 -0.35742,0.0293 -0.35547,0.0293 -0.35742,0.0293 -0.29687,0.0293 H 247.25 l -0.35547,0.0293 -0.35937,0.0293 -0.35547,0.03125 -0.3418,0.02734 -0.13477,0.03125 h -0.22265 l -0.35742,0.05859 -0.3418,0.03125 -0.35742,0.02734 -0.32617,0.06055 h -0.0293 l -0.71484,0.06055 -0.3418,0.05859 -0.53516,0.06055 -0.16211,0.0293 -0.35937,0.0293 -0.69727,0.08984 -0.34375,0.06055 h -0.0293 l -0.32813,0.0293 -0.35547,0.05859 -0.68555,0.08984 -0.22265,0.06055 h -0.13281 l -0.3418,0.06055 -0.70117,0.117187 -0.3418,0.06055 h -0.0742 l -0.26758,0.0293 -2.79492,0.505859 -0.0879,0.0293 -0.625,0.08984 -0.35937,0.08984 -0.3418,0.06055 -0.23633,0.05859 h -0.11914 l -0.3418,0.08984 -1.05664,0.208984 -0.043,0.02734 -0.29882,0.0625 -0.35547,0.05859 -2.44141,0.564453 -1.38281,0.357422 -0.16406,0.0293 -3.04883,0.802734 -0.22266,0.0625 -0.32812,0.115234 -0.95117,0.269532 h -0.0762 l -0.34179,0.11914 -0.3418,0.08984 -0.3418,0.119141 -0.32617,0.08984 -0.0879,0.0293 -0.25391,0.08984 -0.34179,0.08789 -0.32813,0.11914 -0.3418,0.08984 -0.23632,0.08789 -0.10547,0.03125 -0.32813,0.08789 -0.34179,0.121094 -0.32618,0.117188 -0.34179,0.08984 -0.0606,0.0293 -0.26953,0.08984 -0.3418,0.117187 -0.32617,0.119141 -0.3418,0.119141 -0.19531,0.06055 -0.13281,0.0293 -0.32617,0.11914 -0.32813,0.119141 -0.32812,0.117187 -0.3418,0.121094 h -0.0156 l -0.32617,0.119141 -0.32812,0.117187 c -17.449,6.365 -33.11191,16.332156 -46.12891,29.035156 -1.576,1.576 -3.078,3.122766 -4.625,4.759766 l -0.19336,0.177734 c -2.887,3.154 -5.63756,6.425664 -8.22656,9.847658 -1.189,1.576 -2.33484,3.18502 -3.46484,4.79102 l -0.14844,0.23632 -0.29688,0.44727 -0.14843,0.20703 -0.15039,0.23828 -0.14844,0.20899 -0.14844,0.20703 -0.14844,0.23828 -0.14843,0.20898 -0.0879,0.14649 -0.0605,0.0918 -0.14844,0.20898 -0.14844,0.23633 -0.14843,0.23633 -0.14844,0.20898 -0.15039,0.20898 v 0.0586 l -0.13281,0.17969 -0.43165,0.68554 -0.15039,0.20703 -0.0879,0.17969 -0.0449,0.0586 -0.69726,1.13086 -0.0469,0.0606 -0.10351,0.14649 c -11.09702,18.208 -17.52194,39.09282 -18.71094,60.42382 h 259.83789 c -1.19,-22.104 -7.91569,-42.75031 -18.80469,-60.57031 l -0.0586,-0.0898 -0.28321,-0.47657 -0.13281,-0.20898 -0.29883,-0.47461 -0.14843,-0.23828 -0.13477,-0.20898 -0.14844,-0.23829 -0.13281,-0.23632 -0.14844,-0.20899 -0.0898,-0.11914 -0.0606,-0.11719 -0.14648,-0.23828 -0.14844,-0.20898 -0.15039,-0.23828 -0.14844,-0.23633 -0.14844,-0.20899 -0.14648,-0.23828 -0.16406,-0.23632 -0.14844,-0.20899 -0.14844,-0.23828 -0.16211,-0.20899 -0.0605,-0.11718 -0.0899,-0.11914 -0.14843,-0.23828 -0.14844,-0.20704 c -1.19,-1.727 -2.4375,-3.45118 -3.6875,-5.11718 -3.481,-4.582026 -7.26172,-8.954958 -11.26172,-13.001958 -0.149,-0.119 -0.28139,-0.267016 -0.40039,-0.416016 l -1.38867,-1.371094 c -12.957,-12.645 -28.56063,-22.581265 -45.89063,-28.947265 h -0.0293 l -0.0449,-0.0293 h -0.0449 l -0.23828,-0.08984 -0.0273,-0.0293 h -0.0469 l -0.6543,-0.238281 -0.32617,-0.119141 -0.32812,-0.117187 -0.32618,-0.119141 -0.26757,-0.08984 -0.0742,-0.0293 -0.32813,-0.08984 -0.32617,-0.119141 -0.32812,-0.117187 -0.32618,-0.119141 -0.10546,-0.03125 -0.22266,-0.05859 -0.32617,-0.11914 -0.3418,-0.119141 -0.32812,-0.08984 -0.28321,-0.08984 -0.0586,-0.02734 -0.32813,-0.08984 -0.32812,-0.11914 -0.3418,-0.119141 -0.32617,-0.08984 -0.10352,-0.0293 -0.23828,-0.06055 -0.0176,-0.0293 -0.65234,-0.177734 -0.34375,-0.11914 -0.26562,-0.06055 -0.0606,-0.0293 -0.34375,-0.08789 -1.00977,-0.298828 -0.10546,-0.0293 -1.51563,-0.416016 h -0.0762 l -1.35352,-0.357421 -0.10547,-0.0293 -0.25195,-0.06055 -1.27734,-0.326172 h -0.0898 l -2.75195,-0.625 -0.34375,-0.08984 c -1.978,-0.417 -3.92692,-0.802859 -5.91992,-1.130859 l -0.28321,-0.0293 h -0.0723 l -0.32813,-0.06055 -0.71484,-0.117187 -0.33984,-0.06055 h -0.11914 l -0.22461,-0.06055 -0.69922,-0.08984 -0.3418,-0.05859 -0.32617,-0.0293 h -0.0293 l -0.35742,-0.06055 -0.68555,-0.08984 -0.35546,-0.0293 -0.17969,-0.0293 -0.53516,-0.06055 -0.3418,-0.05859 -0.69921,-0.06055 h -0.0293 l -0.32813,-0.06055 -0.35547,-0.02734 -0.35742,-0.03125 -0.35547,-0.05859 h -0.20898 l -0.13281,-0.03125 -0.35742,-0.02734 -0.35743,-0.03125 -0.35742,-0.0293 -0.34179,-0.0293 h -0.0586 l -0.29883,-0.0293 -0.35351,-0.0293 -0.35938,-0.0293 -0.35547,-0.0293 -0.26953,-0.03125 h -0.0879 l -0.35742,-0.0293 -0.35742,-0.0293 h -0.35547 l -0.35742,-0.0293 h -0.10352 l -0.2539,-0.02734 -0.72657,-0.0293 -0.35937,-0.03125 -0.29688,-0.0293 h -0.0605 -0.35547 l -0.37305,-0.0293 h -0.35547 l -0.35742,-0.0293 h -0.13281 -0.22461 l -0.35547,-0.03125 h -0.37109 -0.35938 l -0.32617,-0.02734 h -0.0449 -0.71485 -0.35547 l -0.37109,-0.0293 h -0.16406 -0.20899 -0.35546 -0.35743 -0.37109 -0.35742 -0.3711 -0.35742 -0.35547 -0.37304 -0.19141 z m -154.64843,12.191406 -0.0293,1.755859 c 0,11.782 4.34172,22.57986 11.51172,30.88086 6.768,7.823996 16.05073,13.444596 26.55273,15.558596 1.353,-2.261 2.76624,-4.52066 4.24024,-6.72266 l 0.13281,-0.20898 0.13476,-0.20899 0.14844,-0.17773 0.41602,-0.625 0.13476,-0.20703 0.13282,-0.20899 0.14843,-0.17969 0.26758,-0.41601 0.0449,-0.0586 0.10352,-0.1504 0.15039,-0.177729 0.13281,-0.208985 0.13281,-0.207031 0.14844,-0.208984 0.14844,-0.177735 0.11914,-0.208984 h 0.0312 l 0.13281,-0.207031 0.13281,-0.179688 0.15039,-0.207031 0.14844,-0.208984 0.14844,-0.179688 0.13281,-0.208984 0.0742,-0.119141 0.0762,-0.08984 0.13282,-0.177734 0.15039,-0.208985 0.14648,-0.177734 0.29688,-0.386719 0.15039,-0.208984 0.0293,-0.0293 0.11914,-0.179687 0.0879,-0.117188 0.0899,-0.119141 0.17969,-0.238281 0.10351,-0.11914 0.2832,-0.386719 0.0879,-0.119141 0.0313,-0.0293 0.0605,-0.08984 0.10352,-0.117188 0.10547,-0.121094 0.17578,-0.236328 0.0898,-0.11914 0.10352,-0.119141 0.10547,-0.148438 0.0879,-0.117187 0.0898,-0.119141 0.0742,-0.08984 0.0312,-0.0293 0.10351,-0.119141 0.0879,-0.119141 0.0898,-0.11914 0.10547,-0.119141 0.10351,-0.117187 0.0899,-0.119141 0.0879,-0.119141 0.10351,-0.11914 0.10547,-0.119141 0.0899,-0.11914 0.0156,-0.0293 0.0879,-0.119141 0.10547,-0.117187 0.0898,-0.119141 0.0879,-0.121094 0.10547,-0.117187 0.10352,-0.119141 0.0879,-0.119141 0.10547,-0.117187 0.10351,-0.119141 0.0898,-0.11914 0.0605,-0.06055 0.043,-0.06055 0.10547,-0.119141 0.0899,-0.117187 0.11914,-0.119141 0.0879,-0.11914 0.0898,-0.119141 0.11719,-0.119141 0.0898,-0.11914 0.10547,-0.117188 0.60938,-0.714843 0.0898,-0.119141 0.80078,-0.925781 h -5.72656 c -12.182,0 -23.48847,-4.046375 -32.60547,-10.859375 -5.966,-4.434 -10.99224,-10.085016 -14.74023,-16.541016 z m 312.9414,0 c -3.748,6.456 -8.79086,12.107016 -14.75586,16.541016 -9.119,6.813 -20.40847,10.859375 -32.60547,10.859375 h -5.72851 c 0.744,0.863 1.47279,1.72489 2.21679,2.58789 l 0.0879,0.119141 0.0899,0.08984 0.0156,0.0293 0.10352,0.11914 0.17969,0.236328 0.11718,0.119141 0.0899,0.119141 0.0898,0.117187 0.11914,0.121094 0.0899,0.11914 0.0898,0.117188 0.10352,0.148437 0.19336,0.238282 0.10546,0.11914 0.0859,0.119141 0.10547,0.119141 0.0898,0.117187 0.10352,0.119141 0.10351,0.11914 0.0918,0.119141 0.0899,0.119141 0.0723,0.08984 0.0293,0.0293 0.0898,0.119141 0.10547,0.117187 0.0859,0.148438 0.0898,0.11914 0.10547,0.119141 0.10352,0.117187 0.0898,0.119141 0.0898,0.121094 0.0899,0.117187 0.10351,0.119141 0.0156,0.03125 0.0898,0.08789 0.0879,0.11914 0.0899,0.148438 0.0898,0.11914 0.0898,0.119141 0.10547,0.119141 0.10352,0.11914 0.0898,0.117188 0.0879,0.11914 0.15039,0.208985 0.0137,0.0293 0.13477,0.177734 0.14844,0.179688 0.14844,0.208984 0.13281,0.177734 0.15039,0.208985 0.13281,0.177734 0.11914,0.179687 0.0274,0.0293 0.15039,0.208985 0.14843,0.177734 0.13282,0.208984 0.15039,0.207032 0.13281,0.179687 0.14844,0.207031 0.0605,0.08984 0.0899,0.119141 0.14648,0.179687 0.13477,0.207032 0.13281,0.21289 0.14844,0.208985 0.14844,0.177729 0.13476,0.20899 0.0137,0.0312 0.11914,0.17773 0.14844,0.20703 0.13281,0.17969 0.14844,0.20899 0.13477,0.20703 0.13476,0.20898 0.41602,0.59375 0.13281,0.20899 0.15039,0.20898 0.13281,0.20703 0.28321,0.41797 0.11718,0.20703 0.15039,0.20899 0.13282,0.20898 0.13476,0.20703 0.9375,1.45899 0.13477,0.20703 c 0.744,1.189 1.48717,2.38061 2.20117,3.59961 10.501,-2.113 19.78341,-7.7336 26.56641,-15.558596 7.155,-8.301 11.51367,-19.09886 11.51367,-30.88086 z M 263.1543,67.949219 c 27.236,0 51.95887,10.858703 70.04687,28.470703 18.132,17.641998 29.61774,42.127058 30.30274,69.289058 0.06,1.992 -1.53402,3.65875 -3.54102,3.71875 -2.007,0.06 -3.68875,-1.54801 -3.71875,-3.54101 -0.655,-25.168 -11.30691,-47.86847 -28.12891,-64.23047 -16.765,-16.334 -39.68793,-26.417969 -64.96093,-26.417969 -2.009,0 -3.66016,-1.637859 -3.66016,-3.630859 0,-2.023 1.65116,-3.658203 3.66016,-3.658203 z M 128.68359,179.0957 v 19.06836 H 388.85156 V 179.0957 Z m -51.705074,39.95508 30.910154,51.55664 101.86524,51.79492 18.31054,-11.92968 -103.69336,-59.85743 c -1.727,-0.981 -2.33489,-3.21275 -1.33789,-4.96875 0.997,-1.725 3.24375,-2.31989 4.96875,-1.33789 l 106.90625,61.73047 17.16407,-11.18554 -114.96875,-74.82227 z m 363.576174,0 -60.125,0.98047 -119.60938,77.82813 -0.16601,0.11718 c -16.125,10.503 -48.72822,31.71455 -48.69922,31.68555 -11.574,6.961 -23.50344,15.29053 -34.89844,22.72851 l 6.30859,10.94922 206.13868,-119.03125 c 1.757,-1.012 3.98604,-0.41811 4.99804,1.33789 0.997,1.727 0.40211,3.95675 -1.33789,4.96875 l -206.14062,119.03125 6.30664,10.94727 c 37.53,-19.07 75.04617,-38.16928 112.57617,-57.23828 l 0.14648,-0.0606 103.5918,-52.6875 z m -133.22266,111.77149 -15.67578,7.97265 42.48242,24.54492 6.32227,-10.94922 z m -147.05469,7.04882 -11.48242,6.63672 c 12.406,21.509 24.81275,42.98805 37.21875,64.49805 l 11.48242,-6.63477 c -12.406,-21.51 -24.81175,-42.99 -37.21875,-64.5 z m 196.97657,0 c -12.406,21.51 -24.8118,42.99 -37.2168,64.5 l 11.48437,6.63477 c 12.407,-21.51 24.8108,-42.98905 37.2168,-64.49805 z m -73.34961,4.85157 -17.07618,8.68554 57.34376,29.15625 6.32226,-10.91797 z m 79.33008,25.88086 -13.59571,23.56445 66.43164,52.35937 25.70508,-44.53711 z m -208.94922,0.0312 -78.556644,31.35546 25.718754,44.53711 c 16.318,-12.881 14.81721,-11.69137 66.44921,-52.35937 z m -52.1543,98.7539 c 0.007,0.0189 0.0101,0.0398 0.0176,0.0586 0.0292,-0.017 0.0657,-0.0284 0.0957,-0.0449 -0.0388,-0.005 -0.0741,-0.008 -0.11328,-0.0137 z m 16.67187,10.90625 c 0.0894,0.007 0.2348,0.0221 0.32618,0.0293 0.13545,-0.0111 0.20887,-0.0183 0.34375,-0.0293 z m -52.572261,0.69727 c -0.02256,0.0162 -0.04812,0.0282 -0.07031,0.0449 0.04948,0.005 0.09896,0.0105 0.148438,0.0156 -0.02577,-0.0203 -0.05325,-0.0399 -0.07813,-0.0605 z m 0.558593,6.25781 c 0.162538,0.0771 0.337935,0.12734 0.511719,0.18164 -0.03702,-0.0486 -0.07413,-0.0928 -0.111328,-0.14258 -0.133369,-0.014 -0.267042,-0.0249 -0.400391,-0.0391 z" /></g></g></g><g
     transform="translate(-66.160159,-26.001953)"
     id="Layer_1" /><g
     clip-path="url(#clipPath96)"
     id="g94"><g
       id="g92"
       inkscape:label="Clip" /></g></svg>
